<?xml version="1.0" encoding="utf-8"?>
<!-- Generator: Adobe Illustrator 16.0.4, SVG Export Plug-In . SVG Version: 6.00 Build 0)  -->
<!DOCTYPE svg PUBLIC "-//W3C//DTD SVG 1.1//EN" "http://www.w3.org/Graphics/SVG/1.1/DTD/svg11.dtd">
<svg version="1.1" id="Layer_1" xmlns="http://www.w3.org/2000/svg" xmlns:xlink="http://www.w3.org/1999/xlink" x="0px" y="0px"
	 width="82.75px" height="82.75px" viewBox="0 0 82.75 82.75" enable-background="new 0 0 82.75 82.75" xml:space="preserve">
<g>
	<path d="M52.375,49.656c0,1.883-1.522,3.447-3.407,3.447H33.782c-1.884,0-3.407-1.564-3.407-3.447V21.629
		c0-1.883,1.523-3.526,3.407-3.526h15.186c1.885,0,3.407,1.643,3.407,3.526V49.656z M50.375,22.107c0-0.628-0.34-1.004-0.967-1.004
		H34.259c-0.628,0-0.884,0.376-0.884,1.004v27.987c0,0.629,0.256,1.009,0.884,1.009h15.149c0.627,0,0.967-0.38,0.967-1.009V22.107z"
		/>
	<g>
		<polygon points="69.375,49.796 69.375,26.104 13.375,26.104 13.375,65.104 54.497,65.104 		"/>
		<polygon points="57.712,65.104 69.375,65.104 69.375,53.012 		"/>
	</g>
</g>
</svg>
